<?xml version="1.0" encoding="UTF-8"?>
<svg version="1.1" xmlns="http://www.w3.org/2000/svg" width="900" height="900">
<path d="M0 0 C1.08410156 0.69222656 2.16820312 1.38445312 3.28515625 2.09765625 C6.22204689 4.02264379 9.11578012 5.99696668 12 8 C12.63470215 8.43779785 13.2694043 8.8755957 13.92333984 9.32666016 C32.49943748 22.16097592 49.91489338 36.19147201 66.44677734 51.56445312 C68.08641084 53.07986415 69.73904423 54.58005727 71.39453125 56.078125 C76.69131732 60.88660301 81.80596662 65.65250182 86.40234375 71.15234375 C88.13238888 73.15310498 89.97544742 74.97242461 91.875 76.8125 C95.78608661 80.67093737 99.22380628 84.81543552 102.66015625 89.09765625 C105.00042781 92.00053066 107.40090512 94.84374732 109.8125 97.6875 C132.35155285 124.73436342 150.83100271 155.27725451 166 187 C166.38124023 187.79293457 166.76248047 188.58586914 167.15527344 189.40283203 C187.45933551 231.93337946 199.90869358 277.35733557 206 324 C206.16516113 325.24845703 206.33032227 326.49691406 206.50048828 327.78320312 C217.41925305 414.09451431 200.20734618 502.68703352 133 629 C132.56365234 629.63180176 132.12730469 630.26360352 131.67773438 630.91455078 C119.52041894 648.51304629 106.35186843 665.1986971 91.79321289 680.87646484 C89.25945393 683.60640664 86.81151957 686.38043266 84.4375 689.25 C83.633125 690.1575 82.82875 691.065 82 692 C81.34 692 80.68 692 80 692 C79.773125 692.5775 79.54625 693.155 79.3125 693.75 C77.65238361 696.59591381 75.60812043 697.99841921 73 700 C70.7192719 702.2190868 68.49463731 704.48385672 66.29296875 706.78125 C61.75359299 711.4408129 56.96443313 715.59921824 51.890625 719.66796875 C49.04964659 721.95994728 46.27654349 724.31813118 43.5 726.6875 C26.21511778 741.10277791 7.46868357 753.73983877 -12 765 C-12.65742187 765.38091797 -13.31484375 765.76183594 -13.9921875 766.15429688 C-86.13886418 807.68701017 -166.57935405 827.61992106 -353.60546875 811.359375 C-394.67780587 800.19695301 -434.90076512 783.68438362 -471 761 C-471.57459961 760.64309082 -472.14919922 760.28618164 -472.74121094 759.91845703 C-476.87269236 757.3459588 -480.94511439 754.69128668 -485 752 C-485.72445312 751.52191895 -486.44890625 751.04383789 -487.1953125 750.55126953 C-498.02878803 743.3749978 -508.31595658 735.78972373 -518.27197266 727.43994141 C-520.71549886 725.40378464 -523.20491202 723.42571981 -525.6875 721.4375 C-530.50199652 717.50566117 -535.06311099 713.33173405 -539.58666992 709.07202148 C-541.78136778 707.01079192 -543.93981491 705.04368113 -546.37890625 703.2734375 C-546.91386719 702.85320313 -547.44882812 702.43296875 -548 702 C-548 701.34 -548 700.68 -548 700 C-548.66 700 -549.32 700 -550 700 C-550 699.34 -550 698.68 -550 698 C-550.58845703 697.74057617 -551.17691406 697.48115234 -551.78320312 697.21386719 C-554.16116298 695.91175084 -555.62148314 694.55318366 -557.46875 692.578125 C-558.43977661 691.54546509 -558.43977661 691.54546509 -559.43041992 690.49194336 C-560.11338135 689.75210205 -560.79634277 689.01226074 -561.5 688.25 C-562.567948 687.10253296 -562.567948 687.10253296 -563.6574707 685.93188477 C-569.44299609 679.67998381 -575.07522249 673.31559983 -580.52587891 666.77001953 C-581.52964808 665.56476506 -582.53729664 664.36273331 -583.54833984 663.16357422 C-592.73697389 652.25189475 -601.0138261 640.81522699 -609 629 C-609.48710449 628.28231445 -609.97420898 627.56462891 -610.47607422 626.82519531 C-658.39496044 555.81064709 -684.50923717 470.4995578 -682 324 C-681.87271515 323.0253479 -681.87271515 323.0253479 -681.74285889 322.03100586 C-673.64888858 260.39881406 -653.42576592 199.76220283 -620.5 146.8125 C-620.03062012 146.05259766 -619.56124023 145.29269531 -619.07763672 144.50976562 C-607.63672555 126.07610076 -594.93364692 108.62170091 -581 92 C-580.46955078 91.36513672 -579.93910156 90.73027344 -579.39257812 90.07617188 C-574.0865469 83.74400487 -568.74736701 77.55825993 -562.80859375 71.8046875 C-560.24314427 69.24477895 -557.90372707 66.50647689 -555.53515625 63.765625 C-553.77261866 61.73848253 -552.00931289 59.7860559 -550 58 C-549.34 58 -548.68 58 -548 58 C-548 57.34 -548 56.68 -548 56 C-546.671875 54.66015625 -546.671875 54.66015625 -544.75 53.0625 C-541.19588208 50.05085271 -537.77448225 46.93530575 -534.375 43.75 C-528.42795609 38.24217787 -522.14448522 33.24536402 -515.71289062 28.31884766 C-514.09527132 27.07335457 -512.49243926 25.80872399 -510.890625 24.54296875 C-496.04389665 12.88037376 -480.2582084 2.57608098 -464 -7 C-463.36626465 -7.37543945 -462.7325293 -7.75087891 -462.07958984 -8.13769531 C-388.13736533 -51.67906333 -303.90915598 -70.47263721 0 0 Z M-416.26123047 -12.25634766 C-418.67876327 -11.14735998 -421.10429854 -10.05981557 -423.53515625 -8.98046875 C-454.58835203 4.98361235 -484.37591374 24.14937589 -510.0703125 46.47265625 C-512.95745387 48.96329688 -515.90286667 51.36182241 -518.875 53.75 C-522.58890341 56.77056977 -526.02048903 59.89901458 -529.34375 63.33984375 C-531.05511835 65.05524835 -532.84189408 66.61797857 -534.6875 68.1875 C-542.42755787 74.87346439 -549.68403246 82.24140443 -556.30859375 90.03125 C-558.23867842 92.27781507 -560.24418139 94.44583904 -562.25 96.625 C-567.3068307 102.23799651 -571.95675868 108.12720023 -576.55419922 114.1171875 C-577.51603689 115.36975287 -578.48119898 116.61977262 -579.44970703 117.8671875 C-625.46860965 177.19479983 -653.49304858 247.94819024 -664 322 C-664.16516113 323.11665039 -664.33032227 324.23330078 -664.50048828 325.38378906 C-669.63826236 361.41727802 -669.17415569 400.0030203 -664 436 C-663.82839355 437.22509277 -663.65678711 438.45018555 -663.47998047 439.71240234 C-659.69168997 466.05439375 -653.64943544 491.83236068 -645 517 C-644.66774414 517.98387695 -644.33548828 518.96775391 -643.99316406 519.98144531 C-638.62521488 535.80513893 -632.26391499 550.95740439 -625 566 C-624.57041992 566.8962207 -624.14083984 567.79244141 -623.69824219 568.71582031 C-607.84185642 601.66145942 -587.25449523 632.6359541 -563 660 C-561.87479988 661.31232844 -560.74976899 662.62480203 -559.625 663.9375 C-549.40966557 675.55493915 -538.8319467 687.13167237 -527.07421875 697.203125 C-524.79842282 699.1746243 -522.59077333 701.21134395 -520.375 703.25 C-514.72146288 708.34943853 -508.7628393 713.00829093 -502.73632812 717.65332031 C-501.13112279 718.8983024 -499.54138163 720.16315465 -497.953125 721.4296875 C-456.95057817 753.82807295 -409.49938121 775.8932327 -359.89990234 791.40557861 C-358.22241624 791.93041275 -356.54662108 792.46064491 -354.87109375 792.99169922 C-327.62577566 801.503411 -298.38744298 805.77474331 -270 808 C-269.14035645 808.06912598 -268.28071289 808.13825195 -267.39501953 808.20947266 C-261.93207431 808.62681921 -256.47705724 808.87208119 -251 809 C-250.06639648 809.02191406 -249.13279297 809.04382813 -248.17089844 809.06640625 C-180.74423825 810.37354667 -112.65784027 796.80057893 -52 767 C-50.07945342 766.0728621 -48.15888036 765.14577908 -46.23828125 764.21875 C-34.83609741 758.66276616 -23.78412653 752.67641509 -13 746 C-12.40316406 745.63197266 -11.80632813 745.26394531 -11.19140625 744.88476562 C3.29950096 735.89653031 17.1638865 725.95991534 30.43603516 715.25976562 C31.90358785 714.07765949 33.37925762 712.90565059 34.85546875 711.734375 C41.63464266 706.2953841 48.00032044 700.48180332 54.33837891 694.54394531 C55.9766089 693.02173454 57.63114328 691.5198212 59.29296875 690.0234375 C66.47406278 683.53701183 73.14231177 676.74138263 79.60644531 669.54199219 C80.91842588 668.09026317 82.25154015 666.65771374 83.5859375 665.2265625 C90.17195642 658.14191754 96.1335892 650.67894314 102 643 C102.49290527 642.35869141 102.98581055 641.71738281 103.49365234 641.05664062 C110.7303355 631.62497767 117.60328836 622.02168123 124 612 C124.63905273 611.00009033 124.63905273 611.00009033 125.29101562 609.97998047 C142.27732103 583.2108214 156.38941009 554.88089518 167 525 C167.3309668 524.0728418 167.66193359 523.14568359 168.00292969 522.19042969 C179.02876854 491.01210069 186.21127568 458.83960733 190 426 C190.10441406 425.16114258 190.20882812 424.32228516 190.31640625 423.45800781 C201.39617351 332.12005304 178.48147494 235.30227313 106.29150391 120.64111328 C105.86530762 120.0995459 105.43911133 119.55797852 105 119 C104.27167969 118.07058594 103.54335938 117.14117187 102.79296875 116.18359375 C100.88058859 113.7733158 98.94377073 111.38499477 97 109 C95.97712891 107.71609375 95.97712891 107.71609375 94.93359375 106.40625 C89.42421203 99.54662625 83.56758846 93.09073924 77.55712891 86.67480469 C75.99646404 84.99619682 74.45480365 83.30199438 72.91796875 81.6015625 C67.70071086 75.84263122 62.41960014 70.36236268 56.55859375 65.2421875 C54.19784229 63.1733763 51.88933781 61.05670079 49.59106445 58.91894531 C21.52595157 32.86648787 -10.7718778 11.73315301 -44.90014648 -5.43798828 C-47.04582081 -6.51919048 -49.1856134 -7.61211509 -51.32055664 -8.71435547 C-59.89848195 -13.10165413 -68.59273546 -16.87413162 -77.5625 -20.375 C-78.27209869 -20.65313538 -78.98169739 -20.93127075 -79.71279907 -21.21783447 C-174.51382225 -58.2312966 -278.00433511 -60.02141447 -416.26123047 -12.25634766 Z " fill="#0049FF" transform="translate(688,68)"/>
<path d="M0 0 C2.61593153 1.83115207 2.96989455 2.90968366 4 6 C4.51759574 12.27087147 4.1481786 17.99067223 2.5 24.0625 C-4.92881388 53.84884464 9.44392953 84.3953502 24.41503906 109.44335938 C30.84539614 119.81592551 37.91338901 129.7894413 45.10058594 139.64770508 C49.1222254 145.1721933 52.82524906 150.80824842 56.3125 156.6875 C56.70928955 157.35241455 57.1060791 158.0173291 57.51489258 158.70239258 C62.95631857 168.06210303 66.79241864 177.91493358 70.3125 188.125 C73.94859754 198.41904072 77.95600424 208.31683565 83 218 C83.32323242 218.62438965 83.64646484 219.2487793 83.97949219 219.89208984 C88.42773805 228.36588755 93.59850993 235.87209971 100 243 C100.62390625 243.70640625 101.2478125 244.4128125 101.890625 245.140625 C119.38583443 263.81198296 144.74840687 272.76290102 169.7578125 274.21875 C193.89137491 274.80380606 221.77791455 269.72923648 240.625 253.5625 C246.6912507 247.60802277 250.42242617 241.74352187 253.25 233.75 C255.01121971 229.33573276 256.38040546 227.15352649 260.625 224.9375 C262.39275042 224.22881913 264.18714367 223.58371402 266 223 C266.93972656 222.69707031 267.87945312 222.39414062 268.84765625 222.08203125 C279.76102869 218.88457825 290.03898964 217.67255043 301 221 C302 222 302 222 302.5 225.4375 C302.41327268 231.50841225 298.68507288 235.47484346 295 240 C294.40960937 240.75410156 293.81921875 241.50820313 293.2109375 242.28515625 C278.25410141 260.32882873 254.41687562 271.47089704 234.31005859 282.70556641 C232.3098381 283.82638326 230.32002359 284.96319383 228.33203125 286.10546875 C210.46620142 296.07661658 190.92731195 304.40341961 171.09472656 309.46240234 C169.20754669 309.94673452 167.33313811 310.48018869 165.4609375 311.01953125 C137.63427625 318.02417356 108.63118316 312.58525696 84.3359375 298.1171875 C79.5717147 295.09352385 75.28201509 291.66235428 71 288 C70.43925781 287.56042969 69.87851562 287.12085938 69.30078125 286.66796875 C64.42714512 282.84325168 60.64827545 278.14525511 56.67822266 273.43017578 C23.29414007 233.84247256 -24.44309675 208.67805807 -74 195 C-104.95818364 186.36712082 -136.01957023 177.21898232 -164 161 C-161.96102694 158.8002505 -160.08774842 157.35989277 -157.41015625 156.01953125 C-156.36613647 155.48670532 -156.36613647 155.48670532 -155.30102539 154.94311523 C-154.19295532 154.38346069 -154.19295532 154.38346069 -153.0625 153.8125 C-141.41926029 147.78078676 -129.47647237 140.82996988 -120.34765625 131.26953125 C-119 130 -119 130 -117 130 C-116.62065308 129.1352002 -116.62065308 129.1352002 -116.23364258 128.25292969 C-114.85622891 125.73743923 -113.25150652 124.01467561 -111.26171875 121.953125 C-106.76862834 116.99118157 -103.83496155 111.68737597 -100.8125 105.75 C-89.44633689 84.16045377 -76.44123613 64.423274 -60.515625 45.94921875 C-58.276137 43.32373204 -56.1257016 40.65511444 -54 37.9375 C-41.91071043 22.74586728 -21.7010361 -2.00935519 0 0 Z " fill="#0049FF" transform="translate(223,368)"/>
<path d="M0 0 C2.4900453 2.13185957 4.93199528 4.3145982 7.375 6.5 C30.6062912 27.0174509 64.1201793 30.10811947 93.69702148 32.69042969 C96 33 96 33 97 34 C98.93145307 67.7798814 84.46716224 106.47561159 75.3125 138.4375 C74.9948468 139.55264984 74.6771936 140.66779968 74.34991455 141.81674194 C63.29235647 180.48463337 47.01576243 213.30255959 10.55175781 233.75268555 C-6.0892947 242.57742713 -25.1886969 247.31352172 -44 247 C-43.51326275 238.74225073 -42.41390788 230.63180573 -41.10424805 222.47167969 C-39.20082726 210.40261767 -38.75907027 198.44905854 -38.75 186.25 C-38.74932526 185.43152588 -38.74865051 184.61305176 -38.74795532 183.76977539 C-38.78333908 156.65589925 -41.47785107 123.41212586 -56.12060547 99.73754883 C-61.20680736 91.45413947 -62.12197758 83.65286922 -62.99560547 74.05126953 C-65.73639895 43.98047853 -75.59710034 14.29342348 -99 -6 C-113.38993367 -16.45875738 -128.52660961 -20.73766381 -146 -22 C-139.80946997 -34.01691124 -127.87528744 -39.81952072 -115.5859375 -43.96484375 C-71.29950947 -56.74905228 -32.47550857 -26.15164994 0 0 Z " fill="#0049FF" transform="translate(726,281)"/>
<path d="M0 0 C11.04853116 7.13796363 15.0926051 19.80348188 18 32 C20.85836338 46.34442889 21.49785172 60.60232189 21.375 75.1875 C21.37034729 76.18334106 21.36569458 77.17918213 21.36090088 78.2052002 C21.13232198 120.30893028 18.38501762 168.84494714 5 209 C1.73461697 208.34655079 -0.74119112 207.15059948 -3.61328125 205.48046875 C-4.51997559 204.95864014 -5.42666992 204.43681152 -6.36083984 203.89916992 C-7.3348877 203.33431885 -8.30893555 202.76946777 -9.3125 202.1875 C-56.55852921 175.15281371 -107.58147549 151.94850738 -162.5925293 148.36108398 C-223.0085155 144.39352822 -223.0085155 144.39352822 -241.125 130.625 C-243.63481274 127.11126217 -243.66914095 125.23789266 -243 121 C-236.88949463 110.38701699 -225.29965516 105.52380048 -214.6875 100.375 C-197.0263264 91.79548367 -180.12327278 81.56838746 -165 69 C-163.91944897 68.12217651 -162.8387137 67.24457977 -161.7578125 66.3671875 C-142.55900671 50.83669647 -142.55900671 50.83669647 -129.6640625 30.42578125 C-128.16994764 26.50049105 -126.98606451 23.97705677 -124 21 C-119.0207524 19.33698277 -113.66535337 19.52993304 -108.46875 19.35546875 C-84.83512908 18.46411451 -60.38746831 10.18557382 -38.109375 2.7109375 C-36.99723633 2.34081543 -35.88509766 1.97069336 -34.73925781 1.58935547 C-32.65963622 0.88998318 -30.58541526 0.17421851 -28.51855469 -0.56201172 C-19.22702947 -3.70832314 -8.86781305 -5.05907773 0 0 Z " fill="#0049FF" transform="translate(676,581)"/>
<path d="M0 0 C3.8966146 1.42782488 7.24958269 3.26530058 10.76953125 5.45703125 C11.90436335 6.1582466 13.03938111 6.85916155 14.17456055 7.55981445 C14.76699554 7.92708649 15.35943054 8.29435852 15.96981812 8.67276001 C59.91206339 35.85202227 105.90544352 55.91515493 156.3125 67.5625 C211.53393055 80.32776493 211.53393055 80.32776493 228 103 C234.59450248 114.91264965 235.56002074 126.05601727 232 139.18359375 C230.54801952 143.27296065 228.51096124 146.4710815 226 150 C225.50113281 149.6596875 225.00226563 149.319375 224.48828125 148.96875 C193.79048642 128.24636067 159.69715798 112.22451459 121.703125 118.25 C94.70838211 123.7172897 70.59557157 139.6465501 54.1875 161.8125 C53.08508041 163.51649374 52.02730135 165.24969273 51 167 C50.64067383 167.61214355 50.28134766 168.22428711 49.91113281 168.85498047 C44.44177983 178.30798832 40.38941337 187.29384397 38 198 C37.77699219 198.84949219 37.55398438 199.69898438 37.32421875 200.57421875 C35.11276235 210.15719648 35.82310832 220.22877567 36 230 C31.2863753 228.65325009 28.52883771 226.1056424 26 222 C24.78411717 219.10372424 23.92332613 216.14290354 23.0625 213.125 C19.7666208 202.22434578 19.7666208 202.22434578 11.6796875 194.6484375 C1.24374895 189.95705228 -8.62898307 192.09113865 -19 196 C-30.92651521 201.20338259 -41.72111899 208.08106616 -52 216 C-53.299375 216.98226562 -53.299375 216.98226562 -54.625 217.984375 C-64.14717678 225.37016597 -73.48290718 233.54994046 -81 243 C-85.56404981 242.26096349 -87.37840044 239.88908657 -90.25390625 236.45703125 C-97.34880339 226.47338405 -99.0116882 216.00933407 -98 204 C-93.19119853 180.5189743 -77.77180346 162.65561263 -61.69433594 145.78271484 C-28.10460149 110.44089338 3.12278713 67.37050937 2.3359375 16.69140625 C2.12181366 11.01123126 1.17815321 5.55250456 0 0 Z " fill="#0049FF" transform="translate(321,90)"/>
<path d="M0 0 C8.45142916 4.29893241 12.9972313 9.06378965 18 17 C38.56505041 46.78668015 69.7474034 64.33914093 105 71 C125.16051776 74.62806864 144.28250168 73.89791002 164.00488281 68.45898438 C166 68 166 68 169 68 C169.31710937 68.64324219 169.63421875 69.28648437 169.9609375 69.94921875 C180.04019017 89.46732958 193.06069813 100.57182809 214.1796875 107.375 C220.96349497 109.47161737 227.71101601 111.18409838 234.6875 112.5 C240.2163278 113.63623442 243.35043834 114.64080135 247 119 C249.37785841 123.65233168 249.42992102 128.02798705 248 133 C244.02449811 141.77579671 236.84089159 147.5580941 228 151 C213.58588674 156.00709815 198.53485179 156.06556264 183.44012451 156.66534424 C180.68663099 156.77821835 177.93390087 156.90565331 175.18108177 157.0337944 C138.70960515 158.72735567 138.70960515 158.72735567 125.6875 156.125 C123.67501084 155.75490956 121.66198313 155.38773617 119.6484375 155.0234375 C118.6800293 154.84651367 117.71162109 154.66958984 116.71386719 154.48730469 C74.33933746 146.87849204 28.77635544 153.86811759 -8.015625 176.78515625 C-10 178 -10 178 -11 178 C-11.05375793 177.21994598 -11.10751587 176.43989197 -11.16290283 175.63619995 C-12.77961122 100.03028888 -12.77961122 100.03028888 -31.6875 28.1875 C-35.62198668 19.86074045 -37.01059437 11.42046072 -35.3125 2.3125 C-33.80858185 -1.48310295 -32.41286285 -2.83574551 -29 -5 C-18.66844416 -8.44385195 -9.27374027 -4.55316296 0 0 Z " fill="#0049FF" transform="translate(242,629)"/>
<path d="M0 0 C0.02187378 0.95531616 0.02187378 0.95531616 0.04418945 1.92993164 C0.82937264 32.9571528 3.76227698 63.77650763 20.14453125 90.86328125 C25.54510156 99.99308748 30.03076455 109.38611001 33.4375 119.4375 C33.68443604 120.15824707 33.93137207 120.87899414 34.18579102 121.62158203 C36.73210466 129.51542646 38.12352838 137.12327625 35 145 C31.57765405 147.75457113 29.4394994 147.99302382 25.0625 148.0625 C15.88810685 146.64155022 6.99231663 142.09372432 -1.1875 137.875 C-17.54384802 129.46505588 -37.61704839 126.78521254 -55.5625 131.5625 C-67.09269244 135.52643829 -76.73981486 141.09691096 -86 149 C-87.53214137 150.17914802 -89.07312547 151.34694637 -90.625 152.5 C-91.27726563 152.9846875 -91.92953125 153.469375 -92.6015625 153.96875 C-93.06304688 154.3090625 -93.52453125 154.649375 -94 155 C-93.9278125 154.4121875 -93.855625 153.824375 -93.78125 153.21875 C-91.59221688 132.05809649 -90.39130126 108.22490053 -103.96875 90.41796875 C-112.73290413 80.12625959 -123.34856248 74.59913788 -135.52148438 69.18359375 C-152.00352947 61.62059513 -152.00352947 61.62059513 -155 54 C-156.26935202 41.68563688 -153.6788934 33.35772587 -146.234375 23.64453125 C-138.43955882 14.41884846 -128.2915523 7.11054626 -115.95019531 5.77880859 C-113.69143228 5.65866162 -111.44945417 5.62101438 -109.1875 5.625 C-108.36507812 5.62443604 -107.54265625 5.62387207 -106.6953125 5.62329102 C-99.18962772 5.75435402 -92.27520084 7.24514645 -85.01953125 9.04296875 C-80.0302529 10.27430079 -75.13269632 10.82327543 -70 11 C-69.03578125 11.03996094 -68.0715625 11.07992187 -67.078125 11.12109375 C-46.52922277 11.55558546 -24.30844234 7.97314785 -5.07421875 0.69921875 C-3 0 -3 0 0 0 Z " fill="#0049FF" transform="translate(665,87)"/>
<path d="M0 0 C-1.57499704 5.93054443 -4.65054644 10.72623811 -7.875 15.875 C-8.73967896 17.26295776 -8.73967896 17.26295776 -9.62182617 18.67895508 C-14.96825438 27.14784334 -20.81891818 35.12850539 -27 43 C-27.69480469 43.9075 -28.38960937 44.815 -29.10546875 45.75 C-36.26498436 54.96141803 -44.3055911 63.39520106 -52.63452148 71.546875 C-71.51425751 90.0608266 -87.39300654 112.39939918 -88.30078125 139.8046875 C-88.32004968 141.82803703 -88.32359996 143.85158918 -88.3125 145.875 C-88.30758545 146.93348145 -88.3026709 147.99196289 -88.29760742 149.08251953 C-88.13599442 159.83517093 -86.28618566 168.38875334 -81.0859375 177.84375 C-80.0483422 179.90401116 -79.46058639 181.74824432 -79 184 C-79.93199219 184.53367187 -80.86398438 185.06734375 -81.82421875 185.6171875 C-93.83914986 192.5980005 -104.51241626 200.47871293 -114.734375 209.92578125 C-116.79515371 211.81245969 -118.9119155 213.59272426 -121.0625 215.375 C-126.02258227 219.70633945 -129.98719721 224.80239779 -134 230 C-134.68191406 230.87785156 -135.36382812 231.75570312 -136.06640625 232.66015625 C-141.39602484 239.74197822 -145.74414345 247.24664432 -150 255 C-156.576527 252.80782433 -159.69538545 245.05096398 -162.6875 239.1875 C-172.8099372 218.74575485 -172.48325074 193.57230756 -166 172 C-162.94387271 163.16417015 -159.32556354 154.55654116 -155.671875 145.95556641 C-154.00614836 142.03023167 -152.39107312 138.08523376 -150.78125 134.13671875 C-145.61542729 121.51955956 -140.20113076 109.11559765 -134.1875 96.875 C-121.70276988 71.42350385 -109.69741216 43.55688479 -118 15 C-120.52325836 8.60583393 -124.43247617 4.18305362 -129.42578125 -0.46875 C-129.94527344 -0.9740625 -130.46476562 -1.479375 -131 -2 C-131 -2.33 -131 -2.66 -131 -3 C-91.93417474 -8.36816767 -38.26791571 -10.83778064 0 0 Z " fill="#0049FF" transform="translate(289,157)"/>
<path d="M0 0 C6.58814995 4.48904651 10.41959154 10.14145516 12 18 C13.21373484 28.26297309 10.90567549 37.17889117 8.28833008 47.02124023 C4.36478974 61.89843562 -0.18245634 81.23055992 7.9375 95.375 C9.5474496 97.42402677 11.14367622 99.19127427 13 101 C11.91203125 101.54527344 10.8240625 102.09054687 9.703125 102.65234375 C0.42059109 107.38368096 -7.93867461 112.34582904 -16 119 C-16.80953125 119.65742187 -17.6190625 120.31484375 -18.453125 120.9921875 C-25.88248567 127.28440113 -31.8132342 134.78762082 -37 143 C-39.42494864 140.57505136 -39.36269991 139.45648636 -39.8125 136.125 C-40.45961926 132.78316026 -40.88389798 131.1572995 -42.9375 128.375 C-48.61309495 125.82677369 -54.04768339 126.11975784 -59.9609375 127.8828125 C-66.45635854 130.45711323 -72.43979925 133.83245896 -78.40625 137.44921875 C-80.56962526 138.74268257 -82.72837644 139.91240665 -85 141 C-84.93941406 140.30519531 -84.87882813 139.61039063 -84.81640625 138.89453125 C-84.51737718 135.26477842 -84.25528872 131.63301701 -84 128 C-83.94134766 127.20706543 -83.88269531 126.41413086 -83.82226562 125.59716797 C-81.89262615 98.62890011 -85.55926407 73.48707301 -102.6875 51.6875 C-112.20706758 40.87443392 -124.27671756 32.57442748 -138 28 C-138 27.34 -138 26.68 -138 26 C-136.22061035 25.77449463 -136.22061035 25.77449463 -134.40527344 25.54443359 C-82.30498476 19.29313286 -82.30498476 19.29313286 -34 0 C-22.30498545 -6.20297884 -11.52098518 -7.5675102 0 0 Z " fill="#0049FF" transform="translate(802,525)"/>
<path d="M0 0 C5.29506423 3.93371491 10.15005207 8.28204697 14.9375 12.8125 C15.77796875 13.57691406 16.6184375 14.34132812 17.484375 15.12890625 C30.6425788 27.5669125 41.29197884 42.95455837 49.9375 58.8125 C50.2782959 59.42448242 50.6190918 60.03646484 50.97021484 60.66699219 C55.48607086 68.85184889 58.98811467 77.21233114 62 86.0625 C62.31146973 86.96822754 62.62293945 87.87395508 62.94384766 88.80712891 C63.22147949 89.65968262 63.49911133 90.51223633 63.78515625 91.390625 C64.03273682 92.14762695 64.28031738 92.90462891 64.53540039 93.68457031 C64.98458643 96.06168357 64.69275503 97.53674221 63.9375 99.8125 C62.30167969 98.86890625 62.30167969 98.86890625 60.6328125 97.90625 C45.36517711 89.19971467 29.85095892 81.74637089 12.9375 76.8125 C11.90496094 76.4928125 10.87242187 76.173125 9.80859375 75.84375 C-13.01731775 69.79418327 -36.93762895 73.24087284 -57.27734375 84.75244141 C-61.80403187 87.44047201 -65.95555786 90.52942408 -70.0625 93.8125 C-71.00996094 94.55757813 -71.95742188 95.30265625 -72.93359375 96.0703125 C-75.68491422 98.27286213 -78.38378712 100.52243033 -81.0625 102.8125 C-81.73410156 103.37453125 -82.40570313 103.9365625 -83.09765625 104.515625 C-94.3781802 114.73007746 -97.35560073 131.31021845 -99.0625 145.8125 C-99.19061912 149.24959013 -99.17931817 152.68202374 -99.16015625 156.12109375 C-99.15803383 157.57117577 -99.15803383 157.57117577 -99.15586853 159.05055237 C-99.15030221 162.11706732 -99.13775599 165.18350738 -99.125 168.25 C-99.11998065 170.33788957 -99.1154185 172.42578028 -99.11132812 174.51367188 C-99.10034382 179.6133098 -99.08310255 184.71289223 -99.0625 189.8125 C-101.27421287 186.93149407 -103.15806523 183.99173686 -104.96630859 180.83911133 C-113.21545325 166.52895816 -123.84020457 154.47234959 -135.203125 142.5703125 C-140.30221718 137.06414994 -143.073419 132.02264346 -143.5 124.4375 C-143.21689616 117.60761983 -141.10838112 111.51004899 -136.0859375 106.79296875 C-131.62469669 103.14908995 -126.60193827 101.30442794 -121.25 99.3125 C-96.96897795 90.16312937 -83.65140344 74.00192785 -72.796875 50.890625 C-70.54794687 45.81191975 -68.88586751 40.55028571 -67.20727539 35.26196289 C-63.88918086 24.91333868 -59.24505079 16.00581487 -52.0625 7.8125 C-51.46824219 7.11253906 -50.87398438 6.41257813 -50.26171875 5.69140625 C-36.4844987 -9.39792999 -16.70695948 -11.20747672 0 0 Z " fill="#0049FF" transform="translate(479.0625,232.1875)"/>
<path d="M0 0 C0.66 0 1.32 0 2 0 C2.03440186 0.63164062 2.06880371 1.26328125 2.10424805 1.9140625 C4.22438716 38.41332566 12.28761268 75.90634489 39.75390625 102.1015625 C63.91728387 122.5248695 93.96752163 128.87329554 124.98706055 126.5378418 C156.30159092 123.86284767 185.82172643 113.90176252 215.39575195 103.86108398 C216.15229065 103.60515976 216.90882935 103.34923553 217.68829346 103.08555603 C219.11779724 102.60148394 220.54643195 102.11483557 221.97406006 101.6252594 C226.77669568 100 226.77669568 100 229 100 C227.74864548 103.40187708 226.33750231 106.19420311 224.19921875 109.1171875 C223.64113525 109.8812793 223.08305176 110.64537109 222.50805664 111.43261719 C221.90727295 112.23860352 221.30648926 113.04458984 220.6875 113.875 C220.06157959 114.71708008 219.43565918 115.55916016 218.79077148 116.42675781 C201.13215648 139.9300787 177.86107375 168.85526458 147.05078125 173.609375 C121.40729341 176.38829049 84.2554799 174.54233113 63.1953125 157.859375 C56.79263054 152.43646287 50.69018885 146.76179496 44.8359375 140.75390625 C34.02499044 129.47208197 34.02499044 129.47208197 21 121 C20.18917969 120.58234375 19.37835938 120.1646875 18.54296875 119.734375 C10.36445008 115.95046299 1.61036187 113.86114557 -7.10400391 111.67382812 C-14.37329886 109.7676425 -20.30271238 107.92497682 -24.7421875 101.46484375 C-25.11601562 100.63082031 -25.48984375 99.79679687 -25.875 98.9375 C-26.26429688 98.10089844 -26.65359375 97.26429688 -27.0546875 96.40234375 C-32.27370999 83.13912543 -28.60202049 68.82822913 -24 56 C-23.68885254 55.1145752 -23.37770508 54.22915039 -23.05712891 53.31689453 C-18.87644504 41.50103645 -14.21800534 29.91646004 -9.1875 18.4375 C-8.73165527 17.39722656 -8.27581055 16.35695313 -7.80615234 15.28515625 C-5.45613076 10.00864371 -2.97843077 4.95016582 0 0 Z " fill="#0049FF" transform="translate(335,404)"/>
<path d="M0 0 C21.63682759 -0.70584381 42.26371322 0.38726738 62 10 C63.05445313 10.51304687 64.10890625 11.02609375 65.1953125 11.5546875 C77.41273218 18.08522641 87.78209943 28.23361245 92.37451172 41.51074219 C99.93554438 71.60140926 84.92223835 105.72365216 70 131 C66.66129844 136.25995505 62.93718824 141.17719198 59 146 C58.5477002 146.5583252 58.09540039 147.11665039 57.62939453 147.69189453 C47.91583458 159.60540168 37.38542126 170.80162825 26.52050781 181.66479492 C24.99513287 183.19237416 23.47799328 184.72783582 21.9609375 186.26367188 C13.60113012 194.67094134 4.78163547 202.26154001 -5 209 C-3.62324999 202.1581814 -1.62226031 195.764912 0.6875 189.1875 C7.69679431 168.64467822 12.75510884 147.45984732 16 126 C16.14953125 125.03545898 16.2990625 124.07091797 16.453125 123.07714844 C22.29845516 84.08728452 22.27576878 38.89577883 1.2578125 4.1171875 C0 2 0 2 0 0 Z " fill="#0049FF" transform="translate(547,280)"/>
<path d="M0 0 C2 2 2 2 2.31640625 5.19921875 C1.96297965 9.4447012 0.89638737 12.04540891 -1.0625 15.8125 C-1.37977051 16.42649658 -1.69704102 17.04049316 -2.02392578 17.6730957 C-3.90191475 21.22066606 -5.97155174 24.47914987 -8.375 27.6875 C-11.82006137 32.38247026 -14.315181 37.38585168 -16.8125 42.625 C-17.19776855 43.42510498 -17.58303711 44.22520996 -17.97998047 45.04956055 C-22.63573224 55.03869566 -24.89276729 64.71844972 -21.5625 75.5 C-19.41361106 80.98122397 -16.03749866 84.76088515 -11.92578125 88.90625 C-10 91 -10 91 -9 94 C-10.47823739 96.56472657 -12.00995696 98.94496623 -13.6875 101.375 C-29.20946471 124.6516445 -42.30308897 149.40583901 -48 177 C-48.99 177 -49.98 177 -51 177 C-70.56997246 155.92464504 -80.51614809 125.37677236 -80.2109375 96.9921875 C-78.75694297 69.47399474 -68.86045036 44.71177742 -48.625 25.6875 C-40.29626612 18.47790292 -31.23244677 12.56571998 -21.6875 7.125 C-20.71937378 6.57090454 -20.71937378 6.57090454 -19.73168945 6.00561523 C-13.62128114 2.60903219 -7.17221154 -0.85383471 0 0 Z " fill="#0049FF" transform="translate(322,303)"/>
<path d="M0 0 C3.37108804 3.37108804 4.01273289 8.05680503 5.3125 12.5625 C5.62082764 13.63008545 5.92915527 14.6976709 6.24682617 15.79760742 C16.73048116 53.0549881 23.0046414 96.10978525 4.6875 132.0625 C1.0776639 138.25305225 -3.20368665 143.69007813 -8 149 C-8.77214844 149.86625 -9.54429687 150.7325 -10.33984375 151.625 C-29.08922361 171.55951084 -57.38049342 179.59458246 -84 181 C-86.66989226 181.04722955 -89.3293338 181.03293422 -92 181 C-88.35068004 176.43835005 -84.40598018 172.46189041 -80.0625 168.5625 C-76.00043041 164.90521165 -72.19502437 161.18569457 -68.68359375 156.9921875 C-66.81488823 154.78095823 -64.84765806 152.68141299 -62.875 150.5625 C-24.0697267 107.40892782 -3.39906931 57.50346523 0 0 Z " fill="#0049FF" transform="translate(654,385)"/>
<path d="M0 0 C16.69040654 6.38367427 33.39233204 17.60753426 44.2421875 31.7890625 C57.5875408 48.78626298 77.03907301 58.03139975 96.97705078 65.00439453 C97.74259277 65.2723584 98.50813477 65.54032227 99.296875 65.81640625 C99.97532471 66.04827637 100.65377441 66.28014648 101.3527832 66.51904297 C103.18359375 67.26171875 103.18359375 67.26171875 106.18359375 69.26171875 C81.46927784 81.51048058 48.55345332 86.71295918 21.93359375 78.51171875 C3.19227847 71.72607012 -7.17023335 58.2966636 -15.56640625 40.82421875 C-20.53958329 30.02440512 -25.91532007 17.14880861 -21.62890625 5.32421875 C-16.93157527 -2.61265084 -8.09279635 -2.12141263 0 0 Z " fill="#0049FF" transform="translate(333.81640625,532.73828125)"/>
<path d="M0 0 C7.92174662 6.47700185 13.70083144 14.06161051 15.75 24.25 C16.72552597 34.86884005 14.86830605 44.42504871 8.5 53.125 C0.97787595 61.95670828 -8.06790591 66.88957068 -19.625 68.1875 C-31.19882962 68.73151079 -41.63142912 65.26100675 -50.25 57.43359375 C-58.48764344 48.64559051 -61.5838225 39.38886824 -61.46484375 27.5703125 C-60.8150634 17.52825262 -55.58450864 8.80803032 -48.4140625 1.921875 C-34.12306447 -9.11882384 -14.96296069 -10.4712115 0 0 Z " fill="#0049FF" transform="translate(473.25,402.75)"/>
<path d="M0 0 C1.73728906 1.3866797 3.25497329 2.82575907 4.78515625 4.4375 C5.43742187 5.10652344 6.0896875 5.77554687 6.76171875 6.46484375 C17.55463054 18.61192237 20.63611364 34.35940701 19.96435547 50.1875 C19.02301239 62.00687027 14.57143251 74.38445567 5.72265625 82.5 C2.91523622 84.84812841 0.22415312 86.19183216 -3.21484375 87.4375 C-2.86550781 86.61765625 -2.51617187 85.7978125 -2.15625 84.953125 C-1.70121094 83.87546875 -1.24617188 82.7978125 -0.77734375 81.6875 C-0.32488281 80.62015625 0.12757813 79.5528125 0.59375 78.453125 C5.87058601 65.09667452 2.72077194 49.98732251 -2.5703125 37.1484375 C-9.07003254 23.38227442 -18.36048473 13.61341797 -32.37890625 7.4453125 C-47.69840989 2.00119137 -62.78272276 3.33701525 -77.515625 9.91015625 C-87.46571736 14.85597184 -95.44059419 21.645056 -102.21484375 30.4375 C-103.30292083 18.7406714 -97.69816426 7.2257755 -90.5078125 -1.67578125 C-65.29703565 -29.00957089 -26.95810598 -19.01806419 0 0 Z " fill="#0049FF" transform="translate(505.21484375,366.5625)"/>
</svg>
