<?xml version="1.0" encoding="UTF-8"?>
<svg version="1.1" xmlns="http://www.w3.org/2000/svg" width="160" height="160">
<path d="M0 0 C1.79200333 -0.00422974 1.79200333 -0.00422974 3.62020874 -0.00854492 C5.59641708 -0.00550858 5.59641708 -0.00550858 7.61254883 -0.00241089 C9.00859625 -0.00376533 10.40464331 -0.00554551 11.8006897 -0.00772095 C15.59811398 -0.01229015 19.39551117 -0.01050782 23.19293594 -0.00734186 C27.16117681 -0.00481563 31.1294153 -0.00715654 35.09765625 -0.00872803 C41.76245542 -0.01054895 48.42724352 -0.00814544 55.09204102 -0.00338745 C62.80486151 0.00205502 70.51765557 0.00029231 78.23047543 -0.00521386 C84.8445073 -0.00974718 91.4585312 -0.01039445 98.07256413 -0.00777519 C102.02635697 -0.00621363 105.98013739 -0.00601535 109.93392944 -0.00931168 C113.65044776 -0.01219357 117.36693189 -0.01020881 121.0834465 -0.00441742 C123.10361432 -0.00245746 125.12378503 -0.00544104 127.14395142 -0.00854492 C128.3386203 -0.0057251 129.53328918 -0.00290527 130.76416016 0 C132.32823357 0.00056554 132.32823357 0.00056554 133.92390442 0.0011425 C136.38208008 0.12698364 136.38208008 0.12698364 138.38208008 1.12698364 C136.83350438 5.20615865 133.92524755 7.45959047 130.63208008 10.12698364 C129.45067968 11.10565461 128.26970452 12.08483908 127.08911133 13.06448364 C126.4776123 13.56850708 125.86611328 14.07253052 125.23608398 14.59182739 C122.2385284 17.07386973 119.2762428 19.59646207 116.31958008 22.12698364 C115.44124512 22.87818481 115.44124512 22.87818481 114.54516602 23.64456177 C110.25091086 27.3362398 106.070404 31.13660062 101.91650391 34.98464966 C97.61892851 38.94896974 93.21521145 42.77928652 88.74682617 46.54983521 C85.65792563 49.1575588 82.62763159 51.80363936 79.66333008 54.55276489 C79.05086426 55.10907593 78.43839844 55.66538696 77.80737305 56.23855591 C76.640876 57.30017263 75.48776912 58.37676875 74.35131836 59.4704895 C71.43742901 62.08841635 69.2738626 63.48902418 65.30004883 63.73245239 C60.71888988 63.02449662 59.27497101 61.96466536 56.06958008 58.68948364 C52.45213548 55.14189315 48.84461399 51.78683593 44.88208008 48.62698364 C40.06297047 44.73594792 35.47821007 40.64011358 30.91723633 36.45120239 C27.45852125 33.28026946 23.92815722 30.19946117 20.38208008 27.12698364 C19.25829205 26.14922262 18.13460349 25.17134726 17.01098633 24.19338989 C15.73898004 23.08777256 14.46684031 21.98230874 13.19458008 20.87698364 C12.55480225 20.32059204 11.91502441 19.76420044 11.25585938 19.19094849 C8.03712139 16.39936259 4.80234692 13.6320271 1.52270508 10.91213989 C0.91966553 10.41037231 0.31662598 9.90860474 -0.3046875 9.39163208 C-1.45133461 8.44054339 -2.60208365 7.49437343 -3.75732422 6.55374146 C-5.08112898 5.45451259 -6.35526897 4.29594717 -7.61791992 3.12698364 C-7.61791992 2.46698364 -7.61791992 1.80698364 -7.61791992 1.12698364 C-4.96524147 -0.19935559 -2.97170871 0.00107451 0 0 Z " fill="#0094FF" transform="translate(14.617919921875,24.873016357421875)"/>
<path d="M0 0 C6.49784483 3.86853448 6.49784483 3.86853448 9 6 C9 6.66 9 7.32 9 8 C14.99776106 9.49944026 21.00223894 9.49944026 27 8 C27 7.34 27 6.68 27 6 C28.75 4.4921875 28.75 4.4921875 31 2.875 C31.7425 2.33617188 32.485 1.79734375 33.25 1.2421875 C34.11625 0.62730469 34.11625 0.62730469 35 0 C41.13021078 4.36188075 46.63356862 9.23851404 52.13671875 14.34765625 C55.69402985 17.64290078 59.33197449 20.82933388 63 24 C64.12260192 24.97632558 65.24497578 25.95291343 66.3671875 26.9296875 C67.64050512 28.03659625 68.91394665 29.14336248 70.1875 30.25 C71.1472876 31.08470825 71.1472876 31.08470825 72.12646484 31.9362793 C75.34514215 34.72775913 78.57982179 37.49503004 81.859375 40.21484375 C82.46241455 40.71661133 83.0654541 41.21837891 83.68676758 41.73535156 C84.83341468 42.68644025 85.98416373 43.63261022 87.1394043 44.57324219 C88.46320906 45.67247106 89.73734905 46.83103647 91 48 C91 48.66 91 49.32 91 50 C88.34732154 51.32633923 86.35378878 51.12590913 83.38208008 51.12698364 C81.59007675 51.13121338 81.59007675 51.13121338 79.76187134 51.13552856 C78.44439911 51.13350433 77.12692688 51.1314801 75.76953125 51.12939453 C74.37348383 51.13074897 72.97743676 51.13252915 71.58139038 51.13470459 C67.7839661 51.13927379 63.98656891 51.13749146 60.18914413 51.1343255 C56.22090327 51.13179927 52.25266478 51.13414018 48.28442383 51.13571167 C41.61962466 51.13753259 34.95483655 51.13512908 28.29003906 51.13037109 C20.57721857 51.12492862 12.86442451 51.12669133 5.15160465 51.1321975 C-1.46242722 51.13673083 -8.07645112 51.1373781 -14.69048405 51.13475883 C-18.6442769 51.13319727 -22.59805731 51.132999 -26.55184937 51.13629532 C-30.26836768 51.13917721 -33.98485181 51.13719245 -37.70136642 51.13140106 C-39.72153425 51.1294411 -41.74170495 51.13242468 -43.76187134 51.13552856 C-44.95654022 51.13270874 -46.15120911 51.12988892 -47.38208008 51.12698364 C-48.42479568 51.12660662 -49.46751129 51.12622959 -50.54182434 51.12584114 C-53 51 -53 51 -55 50 C-53.4514243 45.92082499 -50.54316748 43.66739317 -47.25 41 C-46.0685996 40.02132904 -44.88762444 39.04214456 -43.70703125 38.0625 C-43.09553223 37.55847656 -42.4840332 37.05445313 -41.85400391 36.53515625 C-38.85644833 34.05311391 -35.89416272 31.53052157 -32.9375 29 C-32.05916504 28.24879883 -32.05916504 28.24879883 -31.16308594 27.48242188 C-27.37441323 24.22538211 -23.66493414 20.89531852 -20 17.5 C-13.49378637 11.4773563 -6.76230585 5.73195452 0 0 Z " fill="#0094FF" transform="translate(62,84)"/>
<path d="M0 0 C1.67680505 3.35361009 1.13798817 7.13652348 1.12939453 10.82421875 C1.13114685 11.73813385 1.13289917 12.65204895 1.13470459 13.59365845 C1.13911816 16.62495809 1.13618684 19.65619973 1.1328125 22.6875 C1.13348568 24.78735363 1.13445583 26.88720718 1.13571167 28.98706055 C1.13718797 33.39209738 1.13503624 37.79711396 1.13037109 42.20214844 C1.12467385 47.85849113 1.12795322 53.51478637 1.13394356 59.17112732 C1.13755098 63.50842651 1.13640974 67.84571439 1.13381577 72.18301392 C1.133147 74.26909389 1.13397317 76.35517488 1.13629532 78.44125366 C1.13882479 81.35279068 1.13497703 84.26425004 1.12939453 87.17578125 C1.13141876 88.04441803 1.13344299 88.91305481 1.13552856 89.80801392 C1.11426386 95.77147228 1.11426386 95.77147228 0 98 C-2.73362753 96.73063053 -4.92280422 95.37591334 -7.1796875 93.3828125 C-8.06744873 92.60538696 -8.06744873 92.60538696 -8.97314453 91.81225586 C-9.60075684 91.25546143 -10.22836914 90.69866699 -10.875 90.125 C-12.22355121 88.9409424 -13.57251897 87.75735909 -14.921875 86.57421875 C-15.60314453 85.97528809 -16.28441406 85.37635742 -16.98632812 84.75927734 C-19.43628135 82.61883566 -21.91320391 80.51174009 -24.39379883 78.40698242 C-30.16035162 73.51220295 -35.76452942 68.48179672 -41.28833008 63.31518555 C-46.3300568 58.6289602 -51.60758455 54.27935174 -57 50 C-55.49542094 46.23434961 -53.36583433 44.45704323 -50.1875 42 C-45.85033676 38.54947039 -41.72851702 34.97898806 -37.6875 31.1875 C-32.13911703 26.00037639 -26.44025853 21.02586393 -20.6484375 16.11328125 C-18.02592573 13.88666098 -15.43251134 11.63013221 -12.8515625 9.35546875 C-11.82458252 8.45332642 -11.82458252 8.45332642 -10.77685547 7.53295898 C-9.44698595 6.36311592 -8.12036692 5.18956516 -6.79736328 4.01196289 C-2.22299871 0 -2.22299871 0 0 0 Z " fill="#0094FF" transform="translate(159,31)"/>
<path d="M0 0 C2.73362753 1.26936947 4.92280422 2.62408666 7.1796875 4.6171875 C7.77152832 5.13547119 8.36336914 5.65375488 8.97314453 6.18774414 C9.60075684 6.74453857 10.22836914 7.30133301 10.875 7.875 C12.22355121 9.0590576 13.57251897 10.24264091 14.921875 11.42578125 C15.60314453 12.02471191 16.28441406 12.62364258 16.98632812 13.24072266 C19.43628135 15.38116434 21.91320391 17.48825991 24.39379883 19.59301758 C30.16035162 24.48779705 35.76452942 29.51820328 41.28833008 34.68481445 C46.3300568 39.3710398 51.60758455 43.72064826 57 48 C55.49542094 51.76565039 53.36583433 53.54295677 50.1875 56 C45.85033676 59.45052961 41.72851702 63.02101194 37.6875 66.8125 C32.13911703 71.99962361 26.44025853 76.97413607 20.6484375 81.88671875 C18.02592573 84.11333902 15.43251134 86.36986779 12.8515625 88.64453125 C12.16690918 89.24595947 11.48225586 89.8473877 10.77685547 90.46704102 C9.44698595 91.63688408 8.12036692 92.81043484 6.79736328 93.98803711 C2.22299871 98 2.22299871 98 0 98 C-1.67680505 94.64638991 -1.13798817 90.86347652 -1.12939453 87.17578125 C-1.13114685 86.26186615 -1.13289917 85.34795105 -1.13470459 84.40634155 C-1.13911816 81.37504191 -1.13618684 78.34380027 -1.1328125 75.3125 C-1.13348568 73.21264637 -1.13445583 71.11279282 -1.13571167 69.01293945 C-1.13718797 64.60790262 -1.13503624 60.20288604 -1.13037109 55.79785156 C-1.12467385 50.14150887 -1.12795322 44.48521363 -1.13394356 38.82887268 C-1.13755098 34.49157349 -1.13640974 30.15428561 -1.13381577 25.81698608 C-1.133147 23.73090611 -1.13397317 21.64482512 -1.13629532 19.55874634 C-1.13882479 16.64720932 -1.13497703 13.73574996 -1.12939453 10.82421875 C-1.13141876 9.95558197 -1.13344299 9.08694519 -1.13552856 8.19198608 C-1.11426386 2.22852772 -1.11426386 2.22852772 0 0 Z " fill="#0094FF" transform="translate(1,31)"/>
</svg>
