<?xml version="1.0" encoding="UTF-8"?>
<svg version="1.1" xmlns="http://www.w3.org/2000/svg" width="160" height="160">
<path d="M0 0 C17.61685948 14.15085592 30.54132125 32.69842161 33.47216797 55.58349609 C35.76297413 78.63181119 31.09691762 98.76851371 17.6875 117.75 C7.69836178 129.93560265 -4.17542017 140.54014889 -19.3125 145.75 C-22.5625 145.9375 -22.5625 145.9375 -25.3125 145.75 C-27.1311495 143.9313505 -26.48613331 141.07270266 -26.5234375 138.625 C-26.55179687 137.36042969 -26.58015625 136.09585938 -26.609375 134.79296875 C-26.66362599 132.12885767 -26.70529053 129.46526931 -26.7421875 126.80078125 C-26.91798605 119.55641594 -27.48822108 113.44235406 -30.3125 106.75 C-30.6425 105.76 -30.9725 104.77 -31.3125 103.75 C-30.34570312 103.53085938 -29.37890625 103.31171875 -28.3828125 103.0859375 C-18.39817617 100.70705195 -9.08742655 98.17846298 -2.875 89.375 C3.13617078 79.25449779 5.43517144 67.69396559 3.15625 56.03125 C2.07069946 52.11382847 1.07830558 49.2645243 -1.41015625 45.98828125 C-3.85216376 41.83135265 -3.74376611 38.95179379 -3.5 34.25 C-3.31983528 29.24933059 -3.28836717 24.69085456 -4.3125 19.75 C-11.70237291 20.89670442 -17.30839884 23.73369978 -23.6875 27.484375 C-27.93260141 28.96650092 -29.74420162 28.49332146 -33.93408203 27.32714844 C-38.01133448 26.33775973 -42.07529203 26.45833305 -46.25 26.5 C-47.13461914 26.49806641 -48.01923828 26.49613281 -48.93066406 26.49414062 C-53.4350383 26.53074803 -57.25734262 26.81250282 -61.5625 28.25 C-67.77919401 29.90408466 -73.34182297 25.63494722 -78.578125 22.66796875 C-81.783937 20.89126359 -84.62924792 20.09887947 -88.3125 19.75 C-89.1812473 23.92261963 -89.32008032 27.6954386 -89.14599609 31.91625977 C-88.89009519 38.68566182 -88.74143496 43.54020142 -93.06640625 49.078125 C-97.83015056 55.4696064 -96.81258989 65.16167527 -96 72.6171875 C-94.72641243 80.8272788 -91.89713715 89.24040565 -85.3125 94.75 C-77.77600689 99.44166771 -69.96948043 102.00018481 -61.3125 103.75 C-62.5107651 108.07964294 -63.86896376 111.9612051 -66.3125 115.75 C-71.27560429 118.38832201 -75.78252015 118.12622455 -81.125 116.8125 C-85.03194799 114.28447483 -87.45357808 111.36335965 -90.3125 107.75 C-95.25942276 102.34827246 -95.25942276 102.34827246 -102.0625 100.625 C-102.805 100.66625 -103.5475 100.7075 -104.3125 100.75 C-103.61125 101.389375 -102.91 102.02875 -102.1875 102.6875 C-98.03116668 106.84383332 -94.9587217 111.89922584 -92.03125 116.96875 C-89.39319684 121.50079004 -87.10317804 124.25485519 -82.3125 126.75 C-78.65732939 127.68375787 -75.26382949 127.85784734 -71.5 127.8125 C-70.52417969 127.80347656 -69.54835937 127.79445312 -68.54296875 127.78515625 C-67.80691406 127.77355469 -67.07085937 127.76195312 -66.3125 127.75 C-66.28565688 130.56256281 -66.26573812 133.37487241 -66.25 136.1875 C-66.24162109 136.98994141 -66.23324219 137.79238281 -66.22460938 138.61914062 C-66.2159857 140.66295221 -66.2602185 142.70683902 -66.3125 144.75 C-66.6425 145.08 -66.9725 145.41 -67.3125 145.75 C-81.58467284 145.75 -93.39273227 135.51299593 -103.3125 126.1875 C-119.3231838 109.75417392 -126.87449603 88.30860845 -126.66186523 65.57128906 C-126.04961957 42.58405858 -116.779176 22.47102542 -100.44506836 6.34106445 C-73.38780043 -19.18780727 -30.03952658 -21.68441893 0 0 Z " fill="#0094FF" transform="translate(126.3125,14.25)"/>
</svg>
