<?xml version="1.0" encoding="UTF-8"?>
<svg version="1.1" xmlns="http://www.w3.org/2000/svg" width="800" height="800">
<path d="M0 0 C2.28525942 -0.00417838 4.57051676 -0.00965866 6.85577029 -0.01631981 C13.1036426 -0.03072682 19.35138246 -0.0265445 25.59926188 -0.019153 C31.65557455 -0.01489953 37.71185485 -0.02474402 43.76815785 -0.03406062 C56.91255251 -0.05368374 70.05690765 -0.0560833 83.20131346 -0.05086542 C94.70635472 -0.04630081 106.21138037 -0.04691668 117.71642113 -0.05270576 C119.26219968 -0.05346265 120.80797823 -0.05421863 122.35375678 -0.05497371 C124.68336891 -0.05611896 127.01298104 -0.05726884 129.34259317 -0.05843295 C150.98925232 -0.06913137 172.63590629 -0.07386999 194.28256702 -0.06596279 C195.50545764 -0.06551703 195.50545764 -0.06551703 196.75305312 -0.06506227 C203.37270723 -0.06261356 209.99236127 -0.06000186 216.61201531 -0.05737813 C242.42705246 -0.04727759 268.24202454 -0.05563012 294.05705261 -0.07887268 C323.09055376 -0.10497098 352.12401575 -0.11778634 381.15752906 -0.11068493 C384.25594595 -0.10996892 387.35436286 -0.10929453 390.45277977 -0.10864449 C391.21563402 -0.10847468 391.97848826 -0.10830487 392.7644593 -0.10812991 C404.257028 -0.10583133 415.74956022 -0.1137828 427.24212074 -0.12693596 C440.31913003 -0.14187623 453.39605409 -0.1426516 466.4730616 -0.12486505 C473.14059005 -0.11616847 479.80799133 -0.11418895 486.47552109 -0.1295166 C492.58791758 -0.14339375 498.70001276 -0.13856126 504.81239196 -0.11927737 C507.01480561 -0.11552638 509.21724358 -0.11841305 511.41963551 -0.12888902 C527.14932921 -0.19834505 543.69206765 0.30193572 557.7853241 8.20018005 C558.43855652 8.54854919 559.09178894 8.89691833 559.76481628 9.25584412 C579.78164382 20.14079882 594.1349287 36.39608256 601.21891785 58.27049255 C603.5587199 66.48778779 604.43414738 74.34428235 604.41675186 82.85913849 C604.41983081 84.26755147 604.41983081 84.26755147 604.42297196 85.70441723 C604.42863465 88.85646042 604.42718561 92.00845982 604.42576599 95.1605072 C604.42835005 97.44099811 604.43136332 99.72148857 604.43476939 102.0019784 C604.44283793 108.27367789 604.44462889 114.54536594 604.44536686 120.81707001 C604.44702763 126.88501911 604.45334588 132.95296186 604.45944527 139.02090781 C604.47549471 155.27586767 604.48140744 171.53082658 604.48619402 187.78579294 C604.48853111 195.47807831 604.4921339 203.17036294 604.4958894 210.86264774 C604.50872422 237.20286708 604.51944327 263.54308601 604.522892 289.88330841 C604.52311363 291.53637645 604.52333541 293.18944448 604.52355735 294.84251252 C604.52377799 296.49953534 604.52399847 298.15655817 604.5242188 299.81358099 C604.52466135 303.13775985 604.52510846 306.4619387 604.52555847 309.78611755 C604.52566786 310.61031882 604.52577725 311.43452008 604.52588996 312.28369714 C604.52951973 339.00208404 604.54543714 365.72044379 604.56874884 392.4388203 C604.59335985 420.6981443 604.60706543 448.95745279 604.60825992 477.21678782 C604.60843137 480.32061164 604.60864679 483.42443546 604.60889435 486.52825928 C604.60895012 487.2924878 604.60900589 488.05671631 604.60906334 488.84410327 C604.61021271 501.12851342 604.62122495 513.41289566 604.6357814 525.69729639 C604.65016708 538.0514795 604.65337171 550.40562692 604.64534143 562.75981611 C604.64128529 569.44919012 604.64235697 576.13845904 604.65639877 582.82782745 C604.6691468 588.95698849 604.66793204 595.08598552 604.65580806 601.21514636 C604.65385265 603.4271694 604.65692224 605.6392041 604.66565242 607.85121077 C604.76353791 634.33948316 599.42167425 657.34066691 580.7150116 677.08299255 C564.81600296 692.16404576 544.7776533 700.56348349 522.90288544 700.51910782 C521.49068871 700.52218677 521.49068871 700.52218677 520.04996276 700.52532792 C516.88332695 700.53099933 513.71673461 700.52954049 510.5500946 700.52812195 C508.26150446 700.53070551 505.97291476 700.53371864 503.6843257 700.53712535 C497.3856331 700.54519978 491.0869519 700.54698517 484.78825474 700.54772282 C478.69568737 700.54889993 472.60312488 700.55570027 466.51056088 700.56180123 C450.18763959 700.57785658 433.86471924 700.58376412 417.54179148 700.58854998 C409.81818125 700.59088653 402.09457176 700.59448926 394.3709621 700.59824535 C367.92654631 700.61108085 341.48213093 700.62179972 315.0377121 700.62524796 C313.37785426 700.62546959 311.71799642 700.62569137 310.05813858 700.62591331 C308.39429408 700.62613395 306.73044959 700.62635443 305.06660509 700.62657475 C301.72870413 700.6270173 298.39080318 700.62746442 295.05290222 700.62791443 C294.22529763 700.62802382 293.39769304 700.62813321 292.54500952 700.62824592 C265.71594622 700.63187574 238.88690996 700.64779297 212.05785701 700.67110479 C183.68552455 700.69571245 155.31320753 700.70942124 126.94086409 700.71061587 C123.82496611 700.71078732 120.70906814 700.71100275 117.59317017 700.71125031 C116.82596142 700.71130607 116.05875268 700.71136184 115.26829519 700.7114193 C102.93249182 700.71256897 90.59671624 700.72358392 78.26092225 700.73813736 C65.85622509 700.75251876 53.45156348 700.75573008 41.04686028 700.74769738 C34.32926354 700.74363957 27.61177147 700.74472063 20.8941803 700.75875473 C14.74035958 700.77149334 8.58670227 700.77029625 2.43288177 700.75816402 C0.2107525 700.75620697 -2.01138836 700.75928577 -4.23350137 700.76800838 C-30.58661663 700.86487565 -52.55411202 695.40148994 -72.3396759 676.8525238 C-87.90214812 660.70133964 -95.89164203 640.20659326 -95.84610367 617.91622162 C-95.8481563 616.97727963 -95.85020894 616.03833765 -95.85232377 615.07094288 C-95.85798646 611.91889968 -95.85653742 608.76690029 -95.8551178 605.61485291 C-95.85770185 603.334362 -95.86071513 601.05387154 -95.8641212 598.77338171 C-95.87218974 592.50168222 -95.87398069 586.22999417 -95.87471867 579.9582901 C-95.87637943 573.890341 -95.88269768 567.82239825 -95.88879708 561.7544523 C-95.90484652 545.49949244 -95.91075924 529.24453353 -95.91554583 512.98956717 C-95.91788292 505.2972818 -95.92148571 497.60499716 -95.9252412 489.91271237 C-95.93807603 463.57249303 -95.94879507 437.2322741 -95.9522438 410.8920517 C-95.95246544 409.23898366 -95.95268722 407.58591563 -95.95290916 405.93284759 C-95.9531298 404.27582477 -95.95335028 402.61880194 -95.9535706 400.96177912 C-95.95401315 397.63760026 -95.95446027 394.31342141 -95.95491028 390.98924255 C-95.95501967 390.16504129 -95.95512906 389.34084003 -95.95524177 388.49166297 C-95.95887154 361.77327607 -95.97478894 335.05491632 -95.99810064 308.33653981 C-96.02271165 280.07721581 -96.03641724 251.81790732 -96.03761172 223.55857229 C-96.03778317 220.45474847 -96.0379986 217.35092465 -96.03824615 214.24710083 C-96.03830192 213.48287231 -96.03835769 212.71864379 -96.03841515 211.93125683 C-96.03956451 199.64684668 -96.05057676 187.36246445 -96.06513321 175.07806372 C-96.07951889 162.72388061 -96.08272352 150.36973319 -96.07469323 138.015544 C-96.0706371 131.32616998 -96.07170878 124.63690106 -96.08575058 117.94753265 C-96.09849861 111.81837162 -96.09728385 105.68937458 -96.08515987 99.56021374 C-96.08320445 97.3481907 -96.08627404 95.13615601 -96.09500423 92.92414933 C-96.149478 78.18329227 -95.91675107 63.73437399 -89.4646759 50.13768005 C-89.15731506 49.47204041 -88.84995422 48.80640076 -88.53327942 48.12059021 C-78.04956509 25.93144579 -60.73044884 11.64292575 -37.7146759 3.38768005 C-25.2524134 -0.1609388 -12.85757867 -0.03842433 0 0 Z M13.5533905 118.80174255 C3.52201566 131.34772079 -0.78756716 146.43601377 0.2853241 162.38768005 C2.53370396 179.96217218 10.49768691 193.24675384 23.7931366 204.51268005 C36.93683574 214.31762604 52.14163951 217.89820025 68.2853241 216.38768005 C85.01021359 213.85643314 98.02695291 205.36882404 108.6446991 192.53611755 C118.18756507 179.22633081 121.87727335 163.55317115 119.6290741 147.35325623 C116.86304877 131.03409967 108.06637516 118.34087394 95.4103241 108.01268005 C68.86405949 89.5504631 34.53192613 94.72826875 13.5533905 118.80174255 Z M287.9103241 291.01268005 C283.79770638 295.61939318 280.04781153 300.49496985 276.2853241 305.38768005 C276.25559509 303.54037292 276.25559509 303.54037292 276.2252655 301.65574646 C276.14933228 297.09710345 276.06059647 292.53878479 275.96794128 287.98045349 C275.92960061 286.00558362 275.89475679 284.03064269 275.8634491 282.0556488 C275.81790863 279.2207546 275.75989694 276.38635175 275.6993866 273.55174255 C275.68783539 272.66524017 275.67628418 271.77873779 275.66438293 270.8653717 C275.64451324 270.04467194 275.62464355 269.22397217 275.60417175 268.37840271 C275.59084808 267.65448334 275.57752441 266.93056396 275.563797 266.18470764 C275.42744488 264.1361451 275.42744488 264.1361451 273.2853241 262.38768005 C270.28320834 262.18352806 267.37296332 262.10454644 264.36930847 262.11302185 C263.4456398 262.10791092 262.52197113 262.10279999 261.5703125 262.09753418 C258.5065011 262.08359427 255.4429135 262.0845981 252.3790741 262.0868988 C250.25679947 262.0830146 248.13452563 262.0786805 246.01225281 262.07391357 C241.56011944 262.06644211 237.10806537 262.06674957 232.65592957 262.07200623 C226.93894344 262.07780531 221.22228081 262.06086361 215.50534821 262.03766155 C211.1217101 262.02296052 206.73815058 262.02204749 202.35449219 262.02517128 C200.24607705 262.02465634 198.13765771 262.01938654 196.02926636 262.00935936 C193.0864075 261.99708101 190.14418765 262.00373442 187.20133972 262.0153656 C186.3233522 262.00772186 185.44536469 262.00007813 184.54077148 261.99220276 C181.87873789 261.9798758 181.87873789 261.9798758 178.2853241 262.38768005 C176.03590789 265.76180436 176.03432454 266.87592014 176.0308485 270.82408905 C176.02501631 271.96031566 176.01918412 273.09654227 176.01317519 274.26719999 C176.01695451 275.52097331 176.02073384 276.77474662 176.02462769 278.06651306 C176.02160871 279.40752644 176.01772051 280.74853809 176.01303512 282.08954668 C176.00271374 285.78251778 176.0049474 289.47539226 176.00921571 293.16837144 C176.01167543 297.14797414 176.00267824 301.12755311 175.99517822 305.10714722 C175.98240854 312.9063202 175.98064032 320.70545879 175.98297849 328.50464046 C175.98475912 334.84131369 175.98301748 341.17797646 175.97875404 347.51464844 C175.97815885 348.4153682 175.97756367 349.31608797 175.97695044 350.24410227 C175.97573873 352.07370548 175.9745246 353.90330868 175.97330806 355.73291188 C175.96242397 372.90260104 175.96459924 390.07227056 175.97069291 407.24196082 C175.97586396 422.96312721 175.9646032 438.68423166 175.94559469 454.40538579 C175.92624224 470.53416812 175.91795565 486.66292112 175.92171794 502.79171515 C175.92363379 511.8523344 175.92110512 520.91290093 175.9070034 529.97351074 C175.89512168 537.68600108 175.89364854 545.39840622 175.90579357 553.11089766 C175.91170468 557.04846368 175.91272053 560.98587363 175.90079117 564.92342949 C175.8900077 568.52449029 175.89294475 572.12526329 175.90705285 575.72631019 C175.91098945 577.65359913 175.90009149 579.58090049 175.88875598 581.50816011 C175.89596252 582.64438673 175.90316906 583.78061334 175.91059399 584.95127106 C175.91053897 585.93577854 175.91048396 586.92028602 175.91042727 587.93462706 C176.34714519 590.79219247 176.99110755 591.68510356 179.2853241 593.38768005 C181.21298325 593.83279861 181.21298325 593.83279861 183.35308838 593.76190186 C184.17890915 593.76891617 185.00472992 593.77593048 185.85557556 593.78315735 C186.75802002 593.77551361 187.66046448 593.76786987 188.59025574 593.75999451 C189.54333115 593.76364517 190.49640656 593.76729584 191.47836304 593.77105713 C194.63424906 593.77917492 197.78962365 593.76554313 200.94548035 593.7509613 C203.13358561 593.75044289 205.32169134 593.75095987 207.50979614 593.75247192 C212.09723353 593.75238215 216.68449538 593.74194085 221.27189636 593.72386169 C227.16255841 593.70116106 233.05296412 593.70063229 238.94365788 593.70737934 C243.46197808 593.71071481 247.98023945 593.70409742 252.49854851 593.69425011 C254.67114899 593.69039153 256.843756 593.6892526 259.01635933 593.69083595 C262.04762962 593.69120531 265.07856659 593.67862332 268.10978699 593.66233826 C269.46649002 593.66605438 269.46649002 593.66605438 270.8506012 593.66984558 C275.55131918 593.85887901 275.55131918 593.85887901 279.2853241 591.38768005 C280.67610968 583.21414014 280.40554107 574.94104882 280.36711121 566.67625427 C280.36354931 565.09650265 280.36046491 563.51674988 280.3578186 561.93699646 C280.35129313 558.54697695 280.34174931 555.15698433 280.32992363 551.76697922 C280.31150481 546.38315674 280.30199656 540.99934051 280.29400635 535.61549377 C280.26995681 520.30922104 280.23427218 505.00298744 280.18937683 489.69676208 C280.16463168 481.23354219 280.14738748 472.77033798 280.13781744 464.30708706 C280.13240636 459.84352386 280.12321188 455.38004392 280.10442924 450.91651535 C279.81029774 379.41268665 279.81029774 379.41268665 298.95329285 359.5712738 C312.46423051 346.92032882 329.99586213 344.8723922 347.7696991 345.1103363 C360.06443671 345.52975963 370.45466481 350.0676849 378.9728241 359.01268005 C394.14381256 377.59011732 394.58818836 403.33669531 394.57243347 426.17649841 C394.57847569 427.98854881 394.5854044 429.80059642 394.59313965 431.61264038 C394.60788546 435.47510522 394.616741 439.33751966 394.62084961 443.2000103 C394.62762223 449.30547005 394.64943746 455.41082215 394.67338562 461.51623535 C394.72622489 475.55554482 394.75996586 489.59488711 394.79314423 503.63425446 C394.82382843 516.55248433 394.85854993 529.47066689 394.90945482 542.38883501 C394.93282178 548.46226765 394.94654768 554.53562323 394.95294952 560.60909641 C394.95886704 564.37095832 394.97294208 568.13275691 394.98929405 571.89458656 C394.99519169 573.64337725 394.99763782 575.39218335 394.99645424 577.14098358 C394.99530281 579.51952994 395.0062479 581.8977169 395.02030945 584.2762146 C395.01701047 584.97472737 395.0137115 585.67324014 395.01031256 586.39291996 C394.95245544 590.33210146 394.95245544 590.33210146 397.2853241 593.38768005 C400.37287069 593.59720423 403.37141202 593.68130335 406.46086121 593.6782074 C407.4121843 593.68492462 408.36350739 593.69164185 409.34365845 593.69856262 C412.5000475 593.71761834 415.6562248 593.72147055 418.81266785 593.72361755 C420.99980763 593.73003992 423.18694653 593.73676785 425.37408447 593.74378967 C429.96325168 593.75578121 434.5523435 593.75946854 439.14152527 593.75828552 C445.03112024 593.75808216 450.92023359 593.78539382 456.80971432 593.81982994 C461.32807652 593.84203228 465.84632156 593.84612512 470.36473274 593.84506607 C472.53652673 593.84743173 474.70832349 593.85630912 476.88006401 593.8717308 C479.91385316 593.89125713 482.94658748 593.88560543 485.98039246 593.8735199 C486.88283691 593.88475891 487.78528137 593.89599792 488.71507263 593.90757751 C489.5408934 593.89918854 490.36671417 593.89079956 491.21755981 593.88215637 C491.9348825 593.88324591 492.65220518 593.88433544 493.39126492 593.88545799 C495.41576683 593.50673563 495.41576683 593.50673563 497.0161705 591.84291363 C498.76705988 588.45574095 498.69683042 585.33296228 498.6595459 581.60946655 C498.6635203 580.82063932 498.66749471 580.03181208 498.67158955 579.21908098 C498.68122415 576.57189169 498.66938643 573.92523534 498.65763855 571.27806091 C498.66006658 569.38041484 498.66378601 567.48277004 498.66870117 565.58512878 C498.67812692 560.42042639 498.66866267 555.25591306 498.65536904 550.09122539 C498.64403749 544.6652682 498.64816435 539.23932012 498.65011597 533.81335449 C498.65100013 524.67607046 498.63990735 515.53886042 498.62150574 506.40159607 C498.60048179 495.90355481 498.59679634 485.40562307 498.6030677 474.90756506 C498.6088138 464.76285124 498.60304528 454.61817524 498.59189415 444.47346687 C498.587302 440.18354643 498.58635076 435.89364954 498.58848 431.60372734 C499.83201284 356.69471863 499.83201284 356.69471863 469.2853241 290.38768005 C468.57633972 289.52916443 467.86735535 288.6706488 467.1368866 287.78611755 C448.11156366 265.69004074 420.59253226 256.25031172 392.15641785 254.0478363 C387.86879538 253.75070778 383.5800467 253.54810304 379.2853241 253.38768005 C378.1715741 253.34514099 377.0578241 253.30260193 375.9103241 253.2587738 C341.64896215 252.61637327 311.08964734 265.9425963 287.9103241 291.01268005 Z M8.2853241 264.38768005 C7.98031882 266.82755445 7.98031882 266.82755445 8.0308485 269.71665859 C8.02501631 270.85437755 8.01918412 271.99209651 8.01317519 273.1642918 C8.01695451 274.4248689 8.02073384 275.685446 8.02462769 276.98422241 C8.02160968 278.32849753 8.01772197 279.67277093 8.01303512 281.01704127 C8.00270107 284.72367313 8.00495059 288.43020886 8.00921571 292.13684881 C8.01167319 296.1294208 8.00268101 300.12196905 7.99517822 304.11453247 C7.98240184 311.9412481 7.98064118 319.76792948 7.98297849 327.59465378 C7.98475853 333.95375748 7.98301876 340.31285075 7.97875404 346.6719532 C7.97815885 347.57558382 7.97756367 348.47921443 7.97695044 349.41022779 C7.97573874 351.24570954 7.97452461 353.08119127 7.97330806 354.91667301 C7.9624212 372.14596935 7.96460044 389.37524613 7.97069291 406.60454357 C7.97586311 422.38073893 7.96460594 438.15687255 7.94559469 453.93305569 C7.92624209 470.11604694 7.91795575 486.29900895 7.92171794 502.48201185 C7.92363391 511.57394507 7.92110407 520.66582575 7.9070034 529.75774956 C7.89512142 537.49771239 7.89364877 545.23759033 7.90579357 552.97755425 C7.91170475 556.92928999 7.91272036 560.88087022 7.90079117 564.83259583 C7.89000778 568.44664913 7.89294467 572.06041566 7.90705285 575.67445511 C7.91098954 577.60875065 7.90009135 579.54305857 7.88875598 581.4773249 C7.89596252 582.61765161 7.90316906 583.75797831 7.91059399 584.93286037 C7.91053897 585.92094769 7.91048396 586.909035 7.91042727 587.92706436 C8.34654957 590.78953028 8.98729656 591.68270322 11.2853241 593.38768005 C13.19315465 593.83260444 13.19315465 593.83260444 15.30839539 593.76190186 C16.12435684 593.76891617 16.9403183 593.77593048 17.78100586 593.78315735 C18.67252853 593.77551361 19.56405121 593.76786987 20.48258972 593.75999451 C21.42430527 593.76364517 22.36602081 593.76729584 23.33627319 593.77105713 C26.45488922 593.77917535 29.57298773 593.76554179 32.6915741 593.7509613 C34.85486348 593.75044285 37.01815334 593.75095998 39.18144226 593.75247192 C43.71760583 593.75238214 48.25359188 593.7419407 52.78971863 593.72386169 C58.61078088 593.70117444 64.43158363 593.70062984 70.25267792 593.70737934 C74.72042659 593.71071727 79.18811586 593.70409254 83.65585327 593.69425011 C85.80250742 593.69039478 87.94916817 593.68925126 90.0958252 593.69083595 C93.09336487 593.69120589 96.09056908 593.6786064 99.08805847 593.66233826 C100.42534248 593.66605438 100.42534248 593.66605438 101.78964233 593.66984558 C102.60560379 593.66276077 103.42156525 593.65567596 104.26225281 593.64837646 C105.32522709 593.64529716 105.32522709 593.64529716 106.4096756 593.64215565 C108.61830517 593.48188309 108.61830517 593.48188309 111.2853241 591.38768005 C111.73819597 588.94575241 111.73819597 588.94575241 111.65726089 586.04029083 C111.66714566 584.32756225 111.66714566 584.32756225 111.67723012 582.5802331 C111.66917372 581.31508293 111.66111731 580.04993276 111.65281677 578.7464447 C111.65483946 577.39733173 111.65817687 576.0482202 111.66272235 574.69911337 C111.67140506 570.97908882 111.66127307 567.25931226 111.64818001 563.53930926 C111.63731675 559.53244658 111.6436894 555.52560772 111.64796448 551.51873779 C111.65360892 543.66425425 111.64326212 535.80986801 111.62767652 527.95540106 C111.61017402 518.81682348 111.60871804 509.678265 111.60806093 500.53967327 C111.60637136 484.23882502 111.59053802 467.93802121 111.5665741 451.63719177 C111.54331466 435.80418021 111.52914957 419.97119684 111.52555847 404.13816833 C111.52522432 402.67553138 111.52522432 402.67553138 111.52488342 401.18334621 C111.52444083 399.21913104 111.52399881 397.25491587 111.52355735 395.2907007 C111.523228 393.83744743 111.523228 393.83744743 111.522892 392.35483551 C111.52267601 391.38851337 111.52246003 390.42219123 111.52223749 389.4265866 C111.51853953 374.35996532 111.50717958 359.29334861 111.4947616 344.22673234 C111.4903211 338.75780813 111.48688499 333.28888435 111.48413947 327.81995904 C111.47971301 319.14600842 111.4719611 310.47207466 111.45736507 301.79813468 C111.45074371 297.83239816 111.44568985 293.86667657 111.44490433 289.90093422 C111.44412051 286.27529759 111.43874452 282.64969878 111.42958483 279.0240739 C111.42586587 277.08109512 111.42706098 275.13810889 111.4283917 273.19512701 C111.42455055 272.05330796 111.4207094 270.9114889 111.41675186 269.73506927 C111.41488212 268.24781208 111.41488212 268.24781208 111.4129746 266.73050928 C111.43993177 264.36532039 111.43993177 264.36532039 110.2853241 262.38768005 C97.28149992 262.34141729 84.27769521 262.30584176 71.27380562 262.28405571 C65.23611172 262.27360153 59.19847396 262.25941259 53.16081238 262.23680115 C47.3382957 262.21513096 41.51583315 262.20312375 35.69327927 262.19792557 C33.46763634 262.19421931 31.24199649 262.18698234 29.0163765 262.17621994 C25.90820575 262.16178243 22.80026105 262.15969886 19.69206238 262.16062927 C18.76417908 262.15343872 17.83629578 262.14624817 16.8802948 262.13883972 C16.03613007 262.14158905 15.19196533 262.14433838 14.32221985 262.14717102 C13.58662905 262.14532743 12.85103825 262.14348385 12.09315681 262.1415844 C10.03324762 262.23624462 10.03324762 262.23624462 8.2853241 264.38768005 Z " fill="#0094FF" transform="translate(145.7146759033203,49.61231994628906)"/>
</svg>
