<?xml version="1.0" encoding="UTF-8"?>
<svg version="1.1" xmlns="http://www.w3.org/2000/svg" width="160" height="160">
<path d="M0 0 C8.74323968 6.25634324 13.90011684 13.7651306 15.81640625 24.390625 C17.12929212 36.05457945 14.381093 45.89825962 7.25 55.25 C1.81479743 61.00872653 -4.70569067 65.52101137 -11.1484375 70.07421875 C-14.50145657 72.87847043 -16.37640583 75.35140665 -17.2265625 79.671875 C-17.27554688 80.44015625 -17.32453125 81.2084375 -17.375 82 C-17.66459075 86.16459075 -17.66459075 86.16459075 -18.75 87.25 C-20.08043625 87.3483721 -21.41593344 87.38078592 -22.75 87.3828125 C-23.554375 87.38410156 -24.35875 87.38539062 -25.1875 87.38671875 C-26.033125 87.38285156 -26.87875 87.37898438 -27.75 87.375 C-28.595625 87.37886719 -29.44125 87.38273437 -30.3125 87.38671875 C-31.116875 87.38542969 -31.92125 87.38414063 -32.75 87.3828125 C-33.4925 87.38168457 -34.235 87.38055664 -35 87.37939453 C-36.75 87.25 -36.75 87.25 -37.75 86.25 C-38.91169467 68.09514371 -38.91169467 68.09514371 -33.671875 61.72265625 C-29.16768264 57.12865637 -24.29560302 52.96437988 -19.43359375 48.7578125 C-14.89225203 44.69062479 -12.01544742 40.21419892 -10.75 34.25 C-10.49585872 27.92579192 -11.47767372 23.11570493 -15.75 18.25 C-20.08446364 14.55295748 -25.2232571 14.13485952 -30.75 14.25 C-36.42057527 15.10422127 -40.84518977 17.16874942 -44.3984375 21.734375 C-47.49338615 27.49491526 -49.04546994 33.96737371 -50.75 40.25 C-65.53132118 38.32289294 -65.53132118 38.32289294 -71.75 36.25 C-71.20691403 23.48747971 -66.41927792 12.29259209 -57 3.5 C-40.79168869 -9.85713609 -17.64254595 -10.77991956 0 0 Z " fill="#0093FF" transform="translate(108.75,22.75)"/>
<path d="M0 0 C0.91644287 0.00523682 1.83288574 0.01047363 2.77709961 0.01586914 C3.66792236 0.0183667 4.55874512 0.02086426 5.4765625 0.0234375 C7.18573853 0.03709351 7.18573853 0.03709351 8.92944336 0.05102539 C14.34350586 0.08196289 14.34350586 0.08196289 19.86694336 0.11352539 C19.86694336 8.03352539 19.86694336 15.95352539 19.86694336 24.11352539 C12.27694336 24.11352539 4.68694336 24.11352539 -3.13305664 24.11352539 C-3.15368164 20.33915039 -3.17430664 16.56477539 -3.19555664 12.67602539 C-3.20466064 11.48436768 -3.21376465 10.29270996 -3.22314453 9.06494141 C-3.22564209 8.13351318 -3.22813965 7.20208496 -3.23071289 6.24243164 C-3.23594971 5.28409424 -3.24118652 4.32575684 -3.24658203 3.33837891 C-3.09613687 0.3899773 -2.9462974 0.15680763 0 0 Z " fill="#0093FF" transform="translate(74.133056640625,121.886474609375)"/>
</svg>
